<svg width="656" height="300" viewBox="0 0 656 300" fill="none" xmlns="http://www.w3.org/2000/svg">
<path d="M225.295 83.6446C214.227 84.0858 203.957 81.5095 195.08 74.6826C194.805 74.475 194.534 74.263 194.265 74.0467C193.997 73.8325 193.732 73.6151 193.471 73.3945C193.207 73.1717 192.946 72.9467 192.689 72.7196C192.431 72.4903 192.177 72.2589 191.926 72.0252C191.675 71.7895 191.426 71.5515 191.18 71.3114C190.935 71.0713 190.693 70.8279 190.453 70.5813C190.215 70.3347 189.979 70.0849 189.746 69.8318C189.512 69.5787 189.282 69.3224 189.054 69.0628C188.827 68.8054 188.604 68.5447 188.386 68.2808C188.165 68.0169 187.948 67.7498 187.734 67.4794C187.52 67.2112 187.31 66.9386 187.104 66.6617C186.897 66.387 186.693 66.1101 186.494 65.8311C186.295 65.552 186.1 65.2697 185.907 64.9842C185.715 64.6987 185.525 64.411 185.339 64.1211C185.153 63.8334 184.972 63.5425 184.794 63.2483C184.617 62.9541 184.443 62.6577 184.272 62.3592C184.101 62.0607 183.933 61.76 183.769 61.4572C183.607 61.1543 183.448 60.8494 183.292 60.5422C183.136 60.235 182.985 59.9268 182.838 59.6175C182.69 59.306 182.547 58.9934 182.406 58.6797C182.265 58.3661 182.129 58.0502 181.997 57.7323C181.865 57.4143 181.738 57.0952 181.614 56.7751C181.489 56.4549 181.369 56.1326 181.254 55.8081C181.137 55.4836 181.025 55.1592 180.917 54.8347C180.811 54.5081 180.708 54.1793 180.608 53.8483C180.509 53.5195 180.413 53.1896 180.32 52.8587C180.229 52.5277 180.142 52.1957 180.06 51.8626C179.976 51.5273 179.897 51.192 179.823 50.8567C179.75 50.5214 179.679 50.185 179.612 49.8476C179.545 49.5101 179.484 49.1716 179.427 48.832C179.369 48.4945 179.315 48.1549 179.265 47.8132C179.218 47.4736 179.173 47.1329 179.132 46.7911C179.091 46.4558 179.055 46.1194 179.025 45.782C178.993 45.4467 178.964 45.1103 178.941 44.7729C178.917 44.4354 178.897 44.098 178.882 43.7605C178.867 43.4231 178.856 43.0856 178.85 42.7481C178.843 42.4107 178.841 42.0732 178.843 41.7358C178.843 41.3983 178.849 41.0609 178.86 40.7234C178.87 40.3838 178.884 40.0453 178.902 39.7078C178.919 39.3725 178.942 39.0362 178.97 38.6987C178.996 38.3613 179.026 38.0249 179.061 37.6896C179.095 37.3522 179.134 37.0169 179.178 36.6838C179.221 36.3485 179.268 36.0132 179.32 35.6779C179.372 35.3448 179.427 35.0117 179.486 34.6785C179.546 34.3476 179.61 34.0166 179.677 33.6857C179.746 33.3547 179.819 33.0237 179.895 32.6928C179.97 32.364 180.05 32.0363 180.135 31.7096C180.219 31.383 180.308 31.0564 180.401 30.7297C180.492 30.4053 180.588 30.0819 180.69 29.7596C180.789 29.4373 180.893 29.116 181.001 28.7959C181.109 28.4757 181.222 28.1567 181.339 27.8387C181.453 27.5229 181.573 27.207 181.699 26.8912C181.822 26.5776 181.95 26.265 182.082 25.9535C182.214 25.642 182.349 25.3327 182.487 25.0255C182.626 24.7183 182.768 24.4123 182.915 24.1073C183.063 23.8044 183.214 23.5026 183.37 23.202C183.523 22.9013 183.681 22.6028 183.843 22.3064C184.006 22.0079 184.171 21.7126 184.34 21.4206C184.509 21.1286 184.681 20.8388 184.856 20.5511C185.033 20.2634 185.213 19.9767 185.394 19.6912C185.578 19.4078 185.765 19.1266 185.956 18.8476C186.146 18.5685 186.34 18.2916 186.537 18.0169C186.733 17.7422 186.935 17.4707 187.14 17.2025C187.343 16.9321 187.55 16.665 187.76 16.4011C195.177 7.066 205.736 1.54351 217.498 0.187214C218.103 0.130973 218.709 0.0866171 219.315 0.0541699C219.923 0.0238859 220.53 0.00656964 221.138 0.00224335C221.746 -0.00424609 222.353 0.0033471 222.958 0.0249785C223.566 0.04661 224.173 0.0801181 224.779 0.125544C225.384 0.173133 225.989 0.23372 226.593 0.307267C227.196 0.378651 227.797 0.464108 228.397 0.563613C228.996 0.663117 229.593 0.774489 230.188 0.897788C230.783 1.02109 231.374 1.15737 231.963 1.30663C232.553 1.45805 233.139 1.62028 233.721 1.79333C234.303 1.96855 234.881 2.15565 235.454 2.35466C236.029 2.55367 236.599 2.76569 237.164 2.99065C237.728 3.21346 238.288 3.44922 238.841 3.69798C239.397 3.94458 239.947 4.20308 240.49 4.47347C241.035 4.74603 241.572 5.0294 242.102 5.32359C242.634 5.61777 243.16 5.9228 243.679 6.23862C244.198 6.55444 244.71 6.88212 245.214 7.22174C254.046 13.1012 260.613 22.4005 262.703 32.842C264.945 44.0396 262.843 55.5096 256.382 64.9615C248.767 76.1103 238.215 81.1559 225.295 83.6446Z" fill="white"/>
<path d="M432.489 297.893L351.112 297.819C337.182 297.851 322.279 298.971 308.483 297.342C307.92 297.279 307.361 297.202 306.805 297.111C306.247 297.021 305.691 296.916 305.138 296.797C304.586 296.676 304.038 296.54 303.492 296.391C302.947 296.242 302.407 296.079 301.87 295.901C301.334 295.724 300.803 295.532 300.277 295.327C299.751 295.121 299.231 294.902 298.716 294.668C298.201 294.437 297.693 294.191 297.191 293.932C296.687 293.672 296.192 293.399 295.705 293.114C286.266 287.695 280.02 279.116 277.272 268.646C273.712 255.083 275.312 237.889 275.345 223.8L275.471 168.384L275.698 80.1988C275.737 67.4828 275.306 54.6759 275.666 41.9729C275.727 39.7729 275.737 37.0895 276.938 35.1881C278.437 32.8163 280.792 32.1122 283.385 31.5411C291.396 31.3432 342.01 30.1459 345.638 32.5989C347.857 34.0979 348.656 38.8384 348.88 41.2525C349.97 52.8978 349.019 69.5951 349.009 81.8471L348.922 158.864C348.886 172.793 348.325 186.96 348.977 200.863C349.382 209.569 351.384 219.219 355.859 226.792C362.313 237.72 372.946 245.533 382.735 253.285C393.667 261.985 404.732 270.512 415.928 278.866C423.884 284.791 432.467 290.447 439.761 297.173L440.41 297.777L432.489 297.893Z" fill="white"/>
<path d="M507.968 299.908C479.242 300.892 451.052 294.049 428.713 275.177C428.051 274.619 427.395 274.052 426.746 273.477C426.097 272.904 425.456 272.322 424.822 271.731C424.188 271.141 423.562 270.543 422.943 269.937C422.323 269.334 421.71 268.721 421.107 268.101C420.501 267.48 419.904 266.852 419.316 266.219C418.725 265.583 418.143 264.94 417.57 264.291C416.997 263.642 416.431 262.987 415.873 262.325C415.315 261.661 414.766 260.991 414.225 260.316C413.684 259.639 413.151 258.957 412.625 258.269C412.102 257.579 411.586 256.884 411.077 256.183C410.569 255.48 410.069 254.771 409.578 254.057C409.09 253.344 408.608 252.624 408.135 251.9C407.661 251.173 407.197 250.442 406.743 249.706C406.286 248.969 405.839 248.226 405.402 247.477C404.966 246.731 404.538 245.978 404.121 245.219C403.701 244.462 403.291 243.698 402.891 242.928C402.491 242.16 402.1 241.388 401.72 240.611C401.337 239.833 400.965 239.05 400.604 238.262C400.242 237.477 399.89 236.686 399.546 235.89C399.202 235.094 398.869 234.295 398.546 233.492C398.222 232.688 397.908 231.88 397.605 231.069C397.3 230.257 397.006 229.443 396.723 228.625C396.439 227.808 396.166 226.987 395.902 226.163C395.638 225.336 395.384 224.508 395.139 223.677C394.895 222.846 394.661 222.013 394.439 221.175C394.216 220.338 394.003 219.499 393.799 218.658C393.596 217.814 393.404 216.969 393.222 216.123C393.04 215.275 392.868 214.426 392.706 213.576C392.544 212.726 392.392 211.874 392.252 211.02C392.111 210.163 391.98 209.306 391.859 208.45C391.74 207.591 391.631 206.732 391.531 205.873C391.432 205.012 391.343 204.15 391.265 203.287C388.796 173.923 396.541 145.755 415.805 123.143C435.507 100.018 463.145 87.7462 493.088 85.3192C521.842 84.216 548.9 91.5458 571.409 109.976C572.088 110.53 572.76 111.092 573.424 111.663C574.088 112.234 574.745 112.814 575.396 113.402C576.048 113.988 576.69 114.583 577.324 115.187C577.96 115.79 578.588 116.402 579.209 117.023C579.83 117.642 580.442 118.268 581.045 118.902C581.651 119.536 582.248 120.177 582.837 120.826C583.425 121.475 584.006 122.132 584.579 122.796C585.15 123.46 585.714 124.13 586.27 124.807C586.825 125.484 587.373 126.169 587.911 126.861C588.45 127.553 588.98 128.251 589.501 128.954C590.023 129.659 590.535 130.37 591.039 131.086C591.543 131.804 592.038 132.528 592.522 133.257C593.009 133.986 593.486 134.721 593.953 135.463C594.42 136.205 594.878 136.952 595.325 137.705C595.775 138.458 596.216 139.216 596.646 139.98C597.074 140.743 597.494 141.512 597.905 142.287C598.316 143.061 598.717 143.84 599.109 144.623C599.5 145.406 599.882 146.194 600.254 146.988C600.626 147.782 600.989 148.58 601.341 149.383C601.692 150.185 602.033 150.992 602.367 151.803C602.697 152.615 603.019 153.43 603.33 154.25C603.642 155.068 603.943 155.891 604.235 156.719C604.525 157.545 604.805 158.375 605.076 159.208C605.346 160.041 605.607 160.878 605.858 161.719C606.107 162.559 606.346 163.401 606.575 164.247C606.804 165.093 607.023 165.942 607.23 166.794C607.438 167.644 607.635 168.497 607.821 169.354C608.007 170.211 608.182 171.069 608.347 171.93C608.511 172.791 608.666 173.654 608.811 174.52C608.953 175.383 609.085 176.248 609.206 177.115C609.33 177.985 609.441 178.855 609.541 179.724C609.642 180.596 609.732 181.468 609.81 182.339C609.89 183.216 609.96 184.093 610.021 184.971C610.079 185.849 610.128 186.727 610.167 187.606C610.204 188.486 610.231 189.365 610.248 190.244C610.263 191.124 610.269 192.004 610.264 192.885C610.26 193.765 610.245 194.644 610.219 195.523C610.193 196.403 610.156 197.282 610.108 198.161C610.061 199.039 610.002 199.917 609.933 200.795C609.864 201.674 609.784 202.55 609.693 203.424C609.604 204.3 609.504 205.174 609.391 206.045C609.281 206.919 609.159 207.791 609.025 208.661C608.893 209.53 608.75 210.399 608.596 211.266C608.443 212.131 608.278 212.996 608.103 213.859C607.928 214.722 607.743 215.582 607.548 216.438C607.351 217.297 607.145 218.152 606.929 219.005C606.712 219.859 606.486 220.709 606.25 221.555C606.012 222.403 605.765 223.248 605.507 224.089C605.25 224.931 604.982 225.769 604.703 226.604C604.426 227.439 604.138 228.271 603.84 229.099C603.541 229.925 603.233 230.75 602.915 231.572C602.597 232.391 602.269 233.208 601.932 234.021C601.592 234.832 601.244 235.64 600.887 236.445C600.53 237.25 600.162 238.049 599.784 238.843C599.407 239.639 599.021 240.43 598.625 241.215C598.229 242 597.824 242.781 597.409 243.557C596.993 244.332 596.568 245.102 596.133 245.868C595.699 246.633 595.255 247.394 594.803 248.149C594.351 248.904 593.889 249.653 593.418 250.397C592.948 251.139 592.469 251.877 591.98 252.61C591.491 253.341 590.994 254.067 590.488 254.787C589.981 255.506 589.467 256.218 588.943 256.926C588.42 257.633 587.887 258.334 587.347 259.028C586.806 259.723 586.257 260.411 585.698 261.092C565.526 285.427 538.974 297.102 507.968 299.908ZM494.999 110.021C487.173 112.52 482.179 117.458 478.464 124.658C465.131 150.506 465.621 225.728 474.697 253.155C477.289 260.978 481.455 269.136 489.191 272.929C494.35 275.46 500.061 275.58 505.664 275.083C513.166 272.916 518.234 268.733 522.063 261.88C536.106 236.753 535.327 163.231 526.982 135.009C524.325 126.021 519.607 116.228 510.872 111.77C505.781 109.171 500.492 109.239 494.999 110.021Z" fill="white"/>
<path d="M105.396 297.627C112.362 284.866 116.126 272.026 114.267 257.373C110.328 226.311 67.3545 222.723 43.6278 214.747C35.4327 211.993 27.4357 208.349 20.5608 203.04C9.17318 194.247 2.47965 181.583 0.799214 167.365C-1.55418 147.445 1.68047 126.679 14.4173 110.68C25.8611 96.3022 42.2407 88.8912 60.2093 86.899L69.3127 86.3376C62.3976 98.2685 59.4218 111.189 61.2944 124.95C65.9259 158.99 108.79 160.32 134.391 168.796C142.84 171.593 150.747 175.519 157.85 180.911C168.405 188.932 174.726 199.017 176.468 212.249C179.158 232.658 175.943 254.265 163.11 270.81C162.759 271.253 162.402 271.693 162.039 272.13C161.678 272.565 161.311 272.996 160.939 273.425C160.567 273.851 160.189 274.273 159.807 274.69C159.426 275.108 159.039 275.521 158.645 275.93C158.253 276.339 157.856 276.742 157.454 277.14C157.052 277.54 156.645 277.934 156.234 278.321C155.823 278.71 155.407 279.095 154.985 279.476C154.565 279.855 154.14 280.228 153.71 280.596C153.279 280.965 152.846 281.329 152.409 281.686C151.969 282.045 151.526 282.399 151.078 282.747C150.633 283.095 150.182 283.437 149.725 283.772C149.271 284.11 148.812 284.442 148.349 284.768C147.887 285.093 147.419 285.413 146.948 285.729C146.476 286.042 146.001 286.351 145.523 286.653C145.045 286.956 144.563 287.254 144.076 287.546C143.592 287.838 143.103 288.123 142.61 288.402C142.119 288.681 141.623 288.955 141.123 289.223C140.624 289.492 140.122 289.753 139.618 290.009C139.112 290.264 138.603 290.514 138.093 290.758C137.58 291 137.065 291.237 136.548 291.469C136.031 291.7 135.512 291.925 134.991 292.144C134.467 292.362 133.942 292.574 133.414 292.78C132.888 292.985 132.358 293.185 131.824 293.38C131.292 293.572 130.758 293.758 130.221 293.938C129.685 294.12 129.146 294.294 128.605 294.46C128.065 294.627 127.522 294.788 126.977 294.944C126.431 295.097 125.884 295.244 125.335 295.385C124.787 295.526 124.238 295.66 123.686 295.787C123.135 295.915 122.581 296.036 122.025 296.151C121.471 296.265 120.915 296.374 120.357 296.475C119.801 296.577 119.243 296.671 118.683 296.758C118.125 296.846 117.565 296.927 117.002 297.001C113.144 297.413 109.273 297.504 105.396 297.627Z" fill="white"/>
<path d="M149.729 146.599C148.474 147.204 147.194 147.752 145.89 148.24C144.586 148.729 143.262 149.159 141.918 149.529C125.37 154.25 103.774 149.353 89.1724 140.946C82.4396 137.072 77.3999 131.173 75.5257 123.525C75.458 123.24 75.3939 122.953 75.3333 122.666C75.2728 122.378 75.2157 122.089 75.162 121.799C75.1086 121.511 75.0586 121.222 75.0121 120.93C74.9658 120.64 74.923 120.35 74.8836 120.06C74.8445 119.768 74.8089 119.476 74.7769 119.184C74.7446 118.892 74.7161 118.599 74.6912 118.305C74.6663 118.013 74.6451 117.719 74.6276 117.425C74.6099 117.133 74.5958 116.84 74.5854 116.546C74.575 116.252 74.5682 115.958 74.565 115.663C74.5617 115.369 74.5622 115.076 74.5663 114.784C74.5704 114.49 74.5781 114.196 74.5893 113.902C74.6006 113.607 74.6154 113.313 74.6338 113.019C74.6524 112.727 74.6744 112.435 74.7 112.143C74.7257 111.849 74.755 111.556 74.7879 111.264C74.8208 110.972 74.8573 110.68 74.8976 110.388C74.9376 110.098 74.9812 109.808 75.0283 109.518C75.0755 109.228 75.1263 108.938 75.1808 108.648C75.2351 108.361 75.293 108.073 75.3544 107.785C75.4159 107.498 75.4809 107.211 75.5494 106.925C75.6178 106.64 75.6897 106.354 75.7652 106.069C75.8407 105.785 75.9197 105.502 76.0021 105.219C76.0847 104.937 76.1707 104.657 76.26 104.378C76.3494 104.097 76.4422 103.818 76.5384 103.541C76.6347 103.262 76.7344 102.985 76.8376 102.711C76.9405 102.436 77.0469 102.162 77.1565 101.89C77.2664 101.617 77.3796 101.346 77.4959 101.075C77.6125 100.805 77.7324 100.537 77.8555 100.27C77.9785 100.002 78.1049 99.7362 78.2344 99.4723C78.364 99.2105 78.4968 98.9488 78.6329 98.687C78.7689 98.4275 78.9081 98.169 79.0505 97.9116C79.193 97.6541 79.3386 97.3989 79.4872 97.1458C79.636 96.8906 79.7879 96.6386 79.9428 96.3898C82.7228 91.9251 86.2745 88.1287 91.5443 86.9347C106.846 86.0197 122.398 86.581 137.73 86.5615C145.553 86.5518 155.446 85.2994 163.022 86.9023C165.718 87.4701 168.181 89.1119 169.606 91.5C173.1 97.3632 171.153 117.331 169.168 123.95C166.001 134.512 159.3 141.508 149.729 146.599Z" fill="white"/>
<path d="M189.421 157.173C195.998 153.023 203.565 150.145 210.34 146.206C237.93 130.161 246.418 116.29 261.762 89.8325L262.456 90.8156C262.943 99.3298 262.544 108.006 262.573 116.546L262.648 171.22C262.687 210.88 263.573 250.676 262.859 290.314C262.836 291.462 262.732 292.572 262.327 293.656C261.817 295.028 260.88 296.433 259.471 296.995C255.104 298.734 196.699 298.637 191.994 296.949C190.966 295.875 189.869 294.856 189.548 293.338C188.311 287.497 189.21 264.668 189.204 257.062C189.091 223.765 189.164 190.468 189.421 157.173Z" fill="white"/>
<path d="M62.6935 297.803L29.1934 297.838C23.449 297.841 17.3035 298.283 11.6109 297.588C9.54601 297.335 7.39055 296.952 5.64425 295.745C2.56274 293.617 1.07763 289.902 0.593843 286.319C-1.21087 272.964 0.915389 256.883 9.49507 246.121C17.1117 236.565 27.2258 233.135 38.9642 231.789C42.7158 231.481 46.4193 231.591 50.1673 231.906C64.8152 233.148 85.2693 237.467 95.068 249.56C99.6982 255.274 100.759 262.237 99.8572 269.356C98.3614 281.157 92.7935 290.541 83.4211 297.777L62.6935 297.803Z" fill="white"/>
<path d="M631.193 297.134C624.213 297.78 617.185 296.443 611.384 292.351C605.485 288.195 601.636 281.741 600.403 274.664C600.362 274.433 600.323 274.202 600.287 273.97C600.252 273.737 600.22 273.504 600.189 273.273C600.161 273.039 600.135 272.805 600.111 272.572C600.088 272.338 600.067 272.104 600.05 271.871C600.032 271.635 600.018 271.4 600.008 271.167C599.997 270.933 599.988 270.698 599.982 270.463C599.977 270.229 599.975 269.994 599.975 269.758C599.975 269.523 599.979 269.288 599.988 269.054C599.995 268.819 600.004 268.584 600.017 268.35C600.03 268.117 600.045 267.882 600.063 267.646C600.082 267.413 600.105 267.179 600.131 266.945C600.155 266.712 600.182 266.479 600.212 266.248C600.244 266.014 600.279 265.782 600.316 265.55C600.353 265.316 600.393 265.085 600.436 264.856C600.477 264.624 600.522 264.394 600.572 264.165C600.622 263.935 600.674 263.706 600.728 263.477C600.782 263.247 600.839 263.02 600.9 262.795C600.96 262.568 601.024 262.342 601.091 262.117C601.156 261.89 601.225 261.665 601.299 261.442C601.37 261.219 601.445 260.997 601.523 260.774C601.601 260.553 601.682 260.333 601.766 260.112C601.851 259.893 601.937 259.676 602.026 259.46C602.114 259.241 602.206 259.025 602.302 258.811C602.397 258.594 602.494 258.38 602.594 258.168C602.693 257.956 602.796 257.745 602.902 257.536C603.008 257.326 603.117 257.118 603.23 256.913C603.34 256.705 603.453 256.499 603.57 256.296C603.687 256.091 603.806 255.887 603.927 255.686C604.048 255.487 604.173 255.288 604.3 255.089C604.426 254.892 604.555 254.697 604.686 254.502C604.818 254.307 604.953 254.115 605.089 253.924C605.227 253.734 605.367 253.545 605.507 253.356C610.452 246.818 617.104 243.703 625.057 242.746C625.435 242.705 625.814 242.672 626.192 242.646C626.571 242.62 626.95 242.601 627.328 242.59C627.709 242.582 628.088 242.58 628.467 242.584C628.848 242.588 629.227 242.601 629.606 242.623C629.987 242.642 630.366 242.669 630.745 242.704C631.121 242.741 631.498 242.784 631.874 242.834C632.25 242.886 632.626 242.944 633 243.009C633.374 243.076 633.747 243.15 634.119 243.23C634.489 243.312 634.858 243.401 635.226 243.496C635.593 243.593 635.959 243.697 636.322 243.807C636.686 243.918 637.047 244.035 637.406 244.161C637.763 244.286 638.119 244.419 638.474 244.56C638.826 244.698 639.176 244.846 639.522 245.001C639.87 245.155 640.214 245.315 640.554 245.481C640.895 245.65 641.233 245.825 641.566 246.007C641.899 246.189 642.229 246.377 642.556 246.572C642.752 246.693 642.948 246.816 643.143 246.942C643.338 247.065 643.53 247.193 643.72 247.325C643.913 247.454 644.103 247.586 644.291 247.72C644.477 247.857 644.662 247.994 644.846 248.132C645.032 248.273 645.215 248.416 645.395 248.561C645.576 248.703 645.755 248.85 645.93 248.999C646.107 249.148 646.283 249.299 646.456 249.453C646.629 249.607 646.8 249.762 646.968 249.92C647.139 250.078 647.307 250.238 647.471 250.4C647.636 250.561 647.799 250.724 647.961 250.89C648.121 251.057 648.279 251.226 648.435 251.397C648.593 251.565 648.748 251.737 648.899 251.913C649.053 252.086 649.203 252.262 649.35 252.441C649.497 252.619 649.642 252.798 649.785 252.98C649.93 253.162 650.071 253.345 650.21 253.528C650.348 253.714 650.485 253.902 650.619 254.09C650.751 254.278 650.882 254.468 651.011 254.661C651.141 254.853 651.268 255.047 651.391 255.242C651.514 255.436 651.635 255.633 651.754 255.832C651.873 256.031 651.99 256.231 652.105 256.432C652.219 256.634 652.331 256.836 652.439 257.039C652.547 257.243 652.653 257.448 652.757 257.656C652.861 257.861 652.962 258.069 653.062 258.279C653.159 258.488 653.254 258.699 653.348 258.911C653.441 259.123 653.53 259.336 653.617 259.551C653.705 259.765 653.791 259.98 653.873 260.196C653.955 260.413 654.034 260.629 654.11 260.845C654.186 261.064 654.259 261.283 654.331 261.504C654.402 261.725 654.47 261.945 654.535 262.166C654.602 262.389 654.665 262.611 654.723 262.834C654.784 263.059 654.841 263.283 654.895 263.506C654.949 263.731 655 263.957 655.048 264.184C655.093 264.413 655.136 264.643 655.177 264.872C655.216 265.101 655.253 265.332 655.288 265.563C655.322 265.795 655.355 266.026 655.385 266.257C655.413 266.489 655.438 266.72 655.46 266.952C655.484 267.183 655.504 267.416 655.521 267.649C655.537 267.883 655.551 268.116 655.564 268.347C655.574 268.581 655.582 268.814 655.586 269.048C655.591 269.281 655.593 269.515 655.593 269.749C655.593 269.98 655.59 270.213 655.583 270.446C655.577 270.68 655.567 270.914 655.554 271.147C655.541 271.379 655.526 271.611 655.508 271.845C655.489 272.076 655.467 272.309 655.444 272.542C655.42 272.774 655.393 273.005 655.362 273.237C655.332 273.468 655.3 273.7 655.265 273.931C655.228 274.16 655.189 274.39 655.148 274.619C655.105 274.848 655.061 275.078 655.015 275.307C654.968 275.536 654.917 275.764 654.863 275.992C654.809 276.219 654.752 276.445 654.694 276.67C654.636 276.895 654.574 277.12 654.509 277.345C654.444 277.57 654.377 277.793 654.308 278.016C654.239 278.237 654.166 278.458 654.091 278.678C654.013 278.899 653.934 279.119 653.854 279.34C653.771 279.559 653.687 279.776 653.601 279.992C653.514 280.209 653.425 280.424 653.335 280.638C653.241 280.852 653.146 281.065 653.049 281.277C652.952 281.489 652.851 281.7 652.747 281.91C652.646 282.12 652.541 282.327 652.432 282.533C652.324 282.741 652.213 282.946 652.098 283.149C651.986 283.353 651.87 283.555 651.751 283.756C651.632 283.957 651.511 284.157 651.388 284.356C651.264 284.553 651.139 284.749 651.011 284.944C650.884 285.138 650.753 285.332 650.619 285.525C645.93 292.235 639.097 295.732 631.193 297.134Z" fill="white"/>
</svg>
