<svg width="88" height="40" viewBox="0 0 88 40" fill="none" xmlns="http://www.w3.org/2000/svg">
<path d="M30.0393 11.1526C28.5636 11.2115 27.1944 10.868 26.0107 9.9577C25.9741 9.93001 25.9379 9.90175 25.9021 9.87291C25.8663 9.84435 25.831 9.81537 25.7961 9.78595C25.7609 9.75624 25.7262 9.72625 25.6918 9.69596C25.6575 9.66539 25.6236 9.63453 25.5902 9.60338C25.5567 9.57194 25.5235 9.54021 25.4907 9.5082C25.4581 9.47618 25.4258 9.44374 25.3938 9.41086C25.362 9.37798 25.3306 9.34467 25.2994 9.31092C25.2683 9.27718 25.2376 9.243 25.2073 9.20839C25.177 9.17407 25.1473 9.13931 25.1182 9.10412C25.0888 9.06894 25.0598 9.03332 25.0312 8.99727C25.0027 8.9615 24.9747 8.92516 24.9473 8.88824C24.9196 8.85161 24.8925 8.81469 24.8659 8.77749C24.8394 8.74028 24.8133 8.70264 24.7876 8.66457C24.762 8.6265 24.7367 8.58814 24.7119 8.5495C24.6871 8.51114 24.6629 8.47234 24.6393 8.43312C24.6156 8.39389 24.5924 8.35438 24.5696 8.31458C24.5468 8.27477 24.5245 8.23468 24.5025 8.1943C24.4809 8.15392 24.4597 8.11326 24.4389 8.0723C24.4182 8.03135 24.398 7.99025 24.3784 7.94901C24.3588 7.90747 24.3396 7.8658 24.3208 7.82398C24.3021 7.78215 24.2839 7.74004 24.2663 7.69765C24.2487 7.65525 24.2317 7.61271 24.2153 7.57002C24.1985 7.52734 24.1825 7.48436 24.1673 7.44109C24.1517 7.39783 24.1367 7.35457 24.1223 7.31131C24.1081 7.26775 24.0944 7.22392 24.0812 7.17979C24.0679 7.13595 24.0551 7.09196 24.0427 7.04784C24.0305 7.00371 24.019 6.95944 24.008 6.91502C23.9968 6.87032 23.9863 6.82561 23.9765 6.78091C23.9667 6.7362 23.9573 6.69135 23.9483 6.64635C23.9394 6.60136 23.9312 6.55622 23.9237 6.51094C23.9159 6.46595 23.9087 6.42067 23.902 6.3751C23.8957 6.32982 23.8898 6.28439 23.8843 6.23882C23.8788 6.19412 23.8741 6.14927 23.87 6.10427C23.8657 6.05957 23.862 6.01472 23.8588 5.96973C23.8556 5.92473 23.853 5.87974 23.851 5.83475C23.849 5.78975 23.8475 5.74475 23.8467 5.69976C23.8458 5.65477 23.8455 5.60977 23.8458 5.56478C23.8458 5.51979 23.8465 5.47479 23.848 5.4298C23.8494 5.38452 23.8513 5.33938 23.8536 5.29439C23.8559 5.24968 23.8589 5.20483 23.8627 5.15984C23.8661 5.11485 23.8702 5.07 23.8748 5.02529C23.8794 4.9803 23.8846 4.93559 23.8904 4.89118C23.8961 4.84647 23.9025 4.80177 23.9094 4.75706C23.9163 4.71265 23.9237 4.66823 23.9315 4.62381C23.9395 4.57968 23.9481 4.53556 23.957 4.49143C23.9662 4.4473 23.9759 4.40317 23.986 4.35904C23.9961 4.3152 24.0067 4.27151 24.018 4.22796C24.0292 4.18441 24.0411 4.14086 24.0535 4.0973C24.0656 4.05404 24.0784 4.01092 24.092 3.96795C24.1052 3.92497 24.1191 3.88214 24.1335 3.83945C24.1479 3.79677 24.1629 3.75423 24.1785 3.71183C24.1938 3.66972 24.2098 3.62761 24.2265 3.5855C24.243 3.54368 24.26 3.50201 24.2776 3.46047C24.2952 3.41894 24.3132 3.37769 24.3317 3.33674C24.3501 3.29578 24.3691 3.25497 24.3888 3.21431C24.4084 3.17393 24.4286 3.13369 24.4493 3.0936C24.4698 3.05351 24.4909 3.01371 24.5125 2.97419C24.5341 2.93439 24.5562 2.89502 24.5787 2.85609C24.6012 2.81715 24.6241 2.77851 24.6475 2.74015C24.6711 2.70179 24.6951 2.66357 24.7193 2.6255C24.7438 2.58771 24.7688 2.55022 24.7941 2.51301C24.8195 2.47581 24.8453 2.43889 24.8716 2.40226C24.8978 2.36563 24.9246 2.32943 24.952 2.29367C24.9792 2.25762 25.0067 2.222 25.0347 2.18681C26.0237 0.942135 27.4314 0.205801 28.9997 0.024962C29.0805 0.017463 29.1612 0.011549 29.242 0.00722266C29.323 0.00318479 29.4041 0.000875953 29.4851 0.000299113C29.5662 -0.000566146 29.6471 0.000446281 29.7278 0.00333048C29.8089 0.00621467 29.8898 0.0106824 29.9705 0.0167392C30.0513 0.0230845 30.1319 0.0311628 30.2124 0.040969C30.2929 0.0504869 30.373 0.0618812 30.4529 0.0751485C30.5328 0.0884158 30.6124 0.103265 30.6917 0.119705C30.7711 0.136145 30.8499 0.154316 30.9284 0.174217C31.0071 0.194406 31.0853 0.216038 31.1629 0.239111C31.2405 0.262473 31.3175 0.287421 31.3939 0.313956C31.4706 0.34049 31.5466 0.368759 31.6219 0.398755C31.6972 0.428462 31.7717 0.459897 31.8456 0.493065C31.9197 0.525945 31.9929 0.560411 32.0653 0.596464C32.138 0.632805 32.2097 0.670588 32.2804 0.709813C32.3513 0.749038 32.4214 0.789708 32.4906 0.831817C32.5598 0.873926 32.628 0.917618 32.6952 0.9629C33.8729 1.74682 34.7485 2.98674 35.0271 4.37895C35.3261 5.87195 35.0457 7.4013 34.1844 8.66155C33.169 10.1481 31.7621 10.8208 30.0393 11.1526Z" fill="white"/>
<path d="M57.6653 39.7191L46.815 39.7092C44.9577 39.7135 42.9706 39.8628 41.1311 39.6456C41.0561 39.6372 40.9815 39.627 40.9074 39.6149C40.833 39.6027 40.7589 39.5887 40.685 39.5729C40.6115 39.5567 40.5384 39.5387 40.4657 39.5188C40.393 39.4989 40.3209 39.4771 40.2494 39.4535C40.1778 39.4298 40.107 39.4043 40.0369 39.3769C39.9669 39.3495 39.8975 39.3202 39.8289 39.2891C39.7602 39.2582 39.6924 39.2255 39.6255 39.1909C39.5583 39.1563 39.4923 39.1199 39.4274 39.0819C38.1689 38.3594 37.336 37.2155 36.9696 35.8194C36.495 34.011 36.7083 31.7185 36.7126 29.84L36.7295 22.4511L36.7598 10.6931C36.765 8.99766 36.7074 7.29008 36.7555 5.59633C36.7637 5.30301 36.765 4.94522 36.925 4.6917C37.1249 4.37545 37.439 4.28157 37.7847 4.20543C38.8528 4.17904 45.6014 4.0194 46.0851 4.34647C46.381 4.54634 46.4875 5.17841 46.5173 5.50029C46.6627 7.05299 46.5359 9.2793 46.5346 10.9129L46.5229 21.1818C46.5182 23.0391 46.4433 24.9279 46.5303 26.7818C46.5844 27.9425 46.8513 29.2292 47.4479 30.2389C48.3084 31.696 49.7261 32.7378 51.0314 33.7713C52.489 34.9314 53.9643 36.0683 55.4572 37.1822C56.518 37.9722 57.6623 38.7262 58.6348 39.6231L58.7214 39.7035L57.6653 39.7191Z" fill="white"/>
<path d="M67.7292 39.9879C63.8991 40.1189 60.1404 39.2065 57.1617 36.6904C57.0735 36.6159 56.9861 36.5404 56.8996 36.4637C56.813 36.3872 56.7275 36.3096 56.643 36.2309C56.5585 36.1522 56.475 36.0724 56.3925 35.9917C56.3097 35.9112 56.2281 35.8296 56.1477 35.7468C56.0669 35.664 55.9873 35.5804 55.9088 35.4959C55.8301 35.4111 55.7525 35.3254 55.6761 35.2389C55.5997 35.1524 55.5242 35.065 55.4498 34.9767C55.3754 34.8882 55.3022 34.7989 55.23 34.7089C55.1579 34.6186 55.0869 34.5276 55.0168 34.4359C54.947 34.3439 54.8782 34.2512 54.8104 34.1577C54.7426 34.064 54.676 33.9696 54.6105 33.8744C54.5453 33.7792 54.4812 33.6833 54.418 33.5867C54.3548 33.4898 54.293 33.3923 54.2324 33.2942C54.1716 33.1959 54.112 33.0968 54.0537 32.997C53.9955 32.8975 53.9385 32.7971 53.8828 32.6959C53.8269 32.5949 53.7722 32.4931 53.7189 32.3905C53.6655 32.2881 53.6135 32.1851 53.5627 32.0816C53.5116 31.9777 53.462 31.8733 53.4139 31.7683C53.3657 31.6636 53.3187 31.5582 53.2728 31.4521C53.227 31.3459 53.1826 31.2394 53.1396 31.1324C53.0963 31.0251 53.0545 30.9173 53.0141 30.8092C52.9735 30.701 52.9342 30.5924 52.8964 30.4834C52.8587 30.3744 52.8222 30.2649 52.787 30.1551C52.7518 30.0449 52.7179 29.9344 52.6853 29.8237C52.6527 29.7129 52.6216 29.6017 52.5919 29.4901C52.5622 29.3785 52.5338 29.2666 52.5066 29.1544C52.4795 29.0419 52.4539 28.9293 52.4296 28.8165C52.4054 28.7034 52.3825 28.5902 52.3609 28.4769C52.3392 28.3635 52.319 28.2499 52.3003 28.136C52.2815 28.0218 52.2641 27.9075 52.2479 27.7933C52.2321 27.6788 52.2175 27.5643 52.2042 27.4498C52.191 27.335 52.1791 27.2201 52.1688 27.105C51.8395 23.1897 52.8722 19.4341 55.4407 16.4191C58.0677 13.3357 61.7528 11.6995 65.7451 11.3759C69.5791 11.2288 73.1868 12.2061 76.1879 14.6635C76.2785 14.7373 76.368 14.8123 76.4566 14.8884C76.5451 14.9646 76.6328 15.0419 76.7196 15.1203C76.8064 15.1985 76.8921 15.2778 76.9766 15.3583C77.0614 15.4387 77.1452 15.5204 77.228 15.6031C77.3107 15.6856 77.3924 15.7691 77.4728 15.8536C77.5536 15.9381 77.6332 16.0236 77.7116 16.1102C77.7901 16.1967 77.8675 16.2842 77.944 16.3728C78.0201 16.4613 78.0952 16.5507 78.1694 16.641C78.2435 16.7313 78.3165 16.8226 78.3883 16.9149C78.4601 17.0072 78.5308 17.1002 78.6003 17.1939C78.6698 17.2879 78.7381 17.3827 78.8053 17.4781C78.8725 17.5739 78.9384 17.6704 79.003 17.7676C79.0679 17.8648 79.1315 17.9628 79.1938 18.0618C79.2561 18.1607 79.3171 18.2603 79.3768 18.3607C79.4368 18.4611 79.4955 18.5622 79.5529 18.664C79.61 18.7658 79.666 18.8683 79.7208 18.9716C79.7756 19.0748 79.8291 19.1787 79.8813 19.2831C79.9335 19.3875 79.9844 19.4926 80.034 19.5985C80.0836 19.7043 80.1319 19.8107 80.1789 19.9177C80.2257 20.0247 80.2712 20.1323 80.3156 20.2405C80.3598 20.3486 80.4026 20.4574 80.4441 20.5667C80.4857 20.6757 80.5259 20.7855 80.5648 20.8959C80.6035 21.0061 80.6408 21.1167 80.6769 21.2277C80.7129 21.3388 80.7477 21.4504 80.7811 21.5626C80.8143 21.6745 80.8462 21.7868 80.8768 21.8996C80.9073 22.0124 80.9365 22.1256 80.9641 22.2392C80.9918 22.3526 81.0181 22.4664 81.0429 22.5806C81.0677 22.6948 81.0911 22.8093 81.113 22.9241C81.1349 23.0389 81.1555 23.154 81.1748 23.2693C81.1939 23.3844 81.2115 23.4998 81.2276 23.6154C81.2441 23.7314 81.2589 23.8473 81.2722 23.9633C81.2857 24.0795 81.2977 24.1957 81.3081 24.312C81.3188 24.4288 81.3281 24.5457 81.3362 24.6628C81.344 24.7799 81.3505 24.897 81.3557 25.0141C81.3606 25.1315 81.3642 25.2487 81.3665 25.3658C81.3685 25.4832 81.3692 25.6006 81.3687 25.718C81.3681 25.8354 81.3661 25.9526 81.3626 26.0697C81.3591 26.1871 81.3542 26.3044 81.3479 26.4215C81.3416 26.5386 81.3338 26.6557 81.3245 26.7728C81.3153 26.8899 81.3046 27.0067 81.2925 27.1232C81.2807 27.24 81.2673 27.3565 81.2523 27.4728C81.2376 27.5893 81.2213 27.7055 81.2034 27.8215C81.1858 27.9374 81.1668 28.0532 81.1463 28.1689C81.1258 28.2842 81.1039 28.3994 81.0805 28.5145C81.0572 28.6296 81.0325 28.7442 81.0065 28.8585C80.9803 28.973 80.9528 29.087 80.9239 29.2007C80.8951 29.3146 80.8649 29.4279 80.8335 29.5407C80.8018 29.6538 80.7688 29.7664 80.7344 29.8786C80.7001 29.9908 80.6643 30.1026 80.6271 30.2139C80.5902 30.3252 80.5519 30.4361 80.5121 30.5466C80.4723 30.6568 80.4312 30.7666 80.3888 30.8762C80.3464 30.9856 80.3027 31.0944 80.2577 31.2029C80.2124 31.311 80.166 31.4188 80.1184 31.5261C80.0708 31.6334 80.0217 31.7399 79.9713 31.8458C79.9211 31.9519 79.8696 32.0573 79.8168 32.162C79.764 32.2667 79.71 32.3708 79.6546 32.4744C79.5992 32.5776 79.5425 32.6803 79.4846 32.7824C79.4266 32.8845 79.3675 32.9859 79.3072 33.0866C79.2469 33.1872 79.1853 33.2871 79.1225 33.3864C79.0599 33.4853 78.996 33.5836 78.9308 33.6814C78.8656 33.7789 78.7993 33.8757 78.7318 33.9717C78.6643 34.0675 78.5957 34.1625 78.5259 34.2568C78.4561 34.3511 78.3851 34.4446 78.313 34.5372C78.2409 34.6297 78.1676 34.7215 78.0932 34.8123C75.4036 38.057 71.8634 39.6136 67.7292 39.9879ZM65.9999 14.6695C64.9564 15.0026 64.2906 15.6611 63.7953 16.6211C62.0176 20.0674 62.0829 30.0971 63.293 33.7541C63.6386 34.7972 64.1941 35.8848 65.2255 36.3905C65.9134 36.728 66.6748 36.744 67.422 36.6778C68.4222 36.3888 69.098 35.8312 69.6085 34.9174C71.4809 31.5672 71.3771 21.7642 70.2644 18.0012C69.91 16.8028 69.281 15.4971 68.1164 14.9027C67.4376 14.5562 66.7324 14.5653 65.9999 14.6695Z" fill="white"/>
<path d="M14.0529 39.6837C14.9818 37.9822 15.4836 36.2702 15.2357 34.3165C14.7105 30.1749 8.98073 29.6964 5.81717 28.633C4.72447 28.2657 3.65822 27.7799 2.74156 27.0721C1.2232 25.8997 0.330733 24.2111 0.106674 22.3153C-0.207112 19.6594 0.224175 16.8906 1.92242 14.7573C3.44826 12.8403 5.63222 11.8522 8.02804 11.5866L9.24182 11.5117C8.3198 13.1025 7.92304 14.8252 8.17271 16.66C8.79024 21.1987 14.5055 21.3761 17.9189 22.5061C19.0455 22.8791 20.0998 23.4025 21.0468 24.1216C22.4542 25.191 23.2969 26.5356 23.5292 28.2999C23.8879 31.0211 23.4592 33.902 21.7481 36.108C21.7014 36.1671 21.6538 36.2258 21.6053 36.2841C21.5572 36.3421 21.5083 36.3996 21.4587 36.4567C21.4091 36.5135 21.3587 36.5698 21.3077 36.6254C21.2569 36.6811 21.2053 36.7362 21.1528 36.7907C21.1006 36.8452 21.0477 36.899 20.994 36.9521C20.9404 37.0054 20.8862 37.0579 20.8314 37.1095C20.7766 37.1615 20.721 37.2128 20.6648 37.2636C20.6088 37.314 20.5522 37.3638 20.4948 37.4128C20.4374 37.4621 20.3795 37.5106 20.3213 37.5582C20.2627 37.6061 20.2036 37.6532 20.1439 37.6996C20.0845 37.7461 20.0244 37.7917 19.9635 37.8364C19.9029 37.8814 19.8418 37.9256 19.7801 37.9692C19.7184 38.0124 19.656 38.0551 19.5932 38.0972C19.5303 38.1391 19.467 38.1802 19.4032 38.2205C19.3395 38.2609 19.2752 38.3006 19.2103 38.3395C19.1457 38.3784 19.0805 38.4165 19.0147 38.4537C18.9493 38.4909 18.8832 38.5274 18.8166 38.5632C18.75 38.5989 18.6831 38.6338 18.6159 38.6679C18.5484 38.7019 18.4806 38.7352 18.4125 38.7678C18.3442 38.8001 18.2755 38.8317 18.2066 38.8626C18.1377 38.8934 18.0684 38.9234 17.9989 38.9525C17.9291 38.9817 17.8591 39.0099 17.7887 39.0373C17.7186 39.0647 17.6479 39.0914 17.5767 39.1174C17.5057 39.143 17.4345 39.1678 17.363 39.1918C17.2914 39.216 17.2196 39.2392 17.1475 39.2614C17.0754 39.2836 17.003 39.3051 16.9303 39.3259C16.8577 39.3464 16.7847 39.366 16.7114 39.3847C16.6385 39.4035 16.5652 39.4214 16.4917 39.4384C16.4181 39.4554 16.3443 39.4716 16.2701 39.4868C16.1963 39.5021 16.1222 39.5165 16.0478 39.5301C15.9737 39.5437 15.8992 39.5562 15.8245 39.5677C15.7501 39.5796 15.6754 39.5904 15.6004 39.6002C15.086 39.6551 14.5699 39.6672 14.0529 39.6837Z" fill="white"/>
<path d="M19.964 19.5463C19.7967 19.627 19.6261 19.7 19.4522 19.7652C19.2783 19.8304 19.1018 19.8876 18.9227 19.937C16.7163 20.5664 13.8367 19.9136 11.8898 18.7926C10.9921 18.2761 10.3202 17.4896 10.0703 16.4699C10.0613 16.4318 10.0527 16.3936 10.0446 16.3552C10.0366 16.3169 10.0289 16.2783 10.0218 16.2397C10.0147 16.2013 10.008 16.1627 10.0018 16.1238C9.99563 16.0851 9.98991 16.0465 9.98467 16.0078C9.97945 15.9689 9.9747 15.9299 9.97043 15.891C9.96614 15.8521 9.96233 15.813 9.95901 15.7738C9.95569 15.7348 9.95287 15.6957 9.95053 15.6565C9.94817 15.6176 9.94629 15.5785 9.94491 15.5393C9.94352 15.5 9.94261 15.4608 9.94218 15.4216C9.94175 15.3824 9.94181 15.3433 9.94235 15.3044C9.9429 15.2651 9.94393 15.2259 9.94543 15.1867C9.94693 15.1475 9.9489 15.1082 9.95135 15.069C9.95383 15.0301 9.95678 14.9911 9.96018 14.9522C9.96361 14.913 9.96752 14.8739 9.9719 14.835C9.97629 14.796 9.98116 14.7571 9.98653 14.7181C9.99186 14.6795 9.99767 14.6408 10.004 14.6022C10.0102 14.5635 10.017 14.5249 10.0243 14.4863C10.0315 14.4479 10.0392 14.4095 10.0474 14.3712C10.0556 14.3328 10.0643 14.2946 10.0734 14.2565C10.0826 14.2185 10.0921 14.1804 10.1022 14.1423C10.1123 14.1045 10.1228 14.0667 10.1338 14.029C10.1448 13.9915 10.1563 13.9541 10.1682 13.9169C10.1801 13.8794 10.1925 13.8422 10.2053 13.8053C10.2181 13.7681 10.2314 13.7312 10.2452 13.6945C10.2589 13.6579 10.2731 13.6214 10.2877 13.5851C10.3024 13.5487 10.3175 13.5125 10.333 13.4765C10.3485 13.4404 10.3645 13.4047 10.3809 13.3692C10.3973 13.3334 10.4142 13.298 10.4314 13.2628C10.4487 13.2279 10.4664 13.193 10.4846 13.1581C10.5027 13.1235 10.5213 13.089 10.5402 13.0547C10.5593 13.0204 10.5787 12.9863 10.5985 12.9526C10.6183 12.9185 10.6386 12.8849 10.6592 12.8518C11.0299 12.2565 11.5035 11.7503 12.2061 11.5911C14.2464 11.4691 16.32 11.5439 18.3641 11.5413C19.4072 11.54 20.7263 11.3731 21.7365 11.5868C22.096 11.6625 22.4244 11.8814 22.6143 12.1998C23.0802 12.9816 22.8207 15.644 22.5559 16.5265C22.1336 17.9347 21.2403 18.8675 19.964 19.5463Z" fill="white"/>
<path d="M25.2563 20.9563C26.1332 20.403 27.1421 20.0193 28.0454 19.494C31.7241 17.3547 32.8559 15.5052 34.9018 11.9775L34.9943 12.1086C35.0592 13.2438 35.006 14.4007 35.0099 15.5394L35.0199 22.8292C35.0251 28.1172 35.1432 33.4234 35.048 38.7084C35.045 38.8616 35.0311 39.0095 34.977 39.154C34.9091 39.337 34.7841 39.5244 34.5963 39.5992C34.014 39.8311 26.2267 39.8181 25.5994 39.5931C25.4622 39.4499 25.316 39.3141 25.2732 39.1116C25.1083 38.3329 25.2282 35.2889 25.2273 34.2748C25.2123 29.8352 25.222 25.3957 25.2563 20.9563Z" fill="white"/>
<path d="M8.35914 39.7071L3.89246 39.7118C3.12653 39.7123 2.30713 39.7711 1.54813 39.6785C1.2728 39.6448 0.985408 39.5937 0.752567 39.4328C0.341699 39.149 0.143684 38.6536 0.0791792 38.176C-0.161449 36.3953 0.122052 34.2512 1.26601 32.8162C2.28157 31.5421 3.63012 31.0848 5.19524 30.9052C5.69545 30.8641 6.18925 30.8788 6.68898 30.9208C8.64204 31.0865 11.3693 31.6623 12.6757 33.2747C13.2931 34.0366 13.4346 34.965 13.3143 35.9142C13.1149 37.4877 12.3725 38.7389 11.1228 39.7036L8.35914 39.7071Z" fill="white"/>
<path d="M84.1592 39.6179C83.2286 39.704 82.2915 39.5257 81.5179 38.9802C80.7314 38.426 80.2183 37.5655 80.0539 36.6219C80.0484 36.5911 80.0433 36.5602 80.0384 36.5294C80.0337 36.4982 80.0294 36.4672 80.0254 36.4363C80.0216 36.4052 80.0182 36.374 80.015 36.3429C80.0118 36.3117 80.0091 36.2806 80.0068 36.2494C80.0045 36.218 80.0026 36.1867 80.0011 36.1556C79.9997 36.1244 79.9986 36.0931 79.9977 36.0617C79.9971 36.0305 79.9968 35.9992 79.9968 35.9678C79.9968 35.9364 79.9974 35.9051 79.9986 35.8739C79.9994 35.8425 80.0007 35.8112 80.0024 35.78C80.0042 35.7489 80.0062 35.7176 80.0085 35.6862C80.0111 35.655 80.0141 35.6239 80.0176 35.5927C80.0208 35.5616 80.0244 35.5306 80.0284 35.4997C80.0327 35.4685 80.0374 35.4375 80.0423 35.4067C80.0472 35.3755 80.0525 35.3447 80.0583 35.3141C80.0637 35.2832 80.0698 35.2525 80.0764 35.2219C80.0831 35.1914 80.09 35.1608 80.0972 35.1302C80.1044 35.0997 80.112 35.0694 80.1201 35.0394C80.1282 35.0091 80.1367 34.979 80.1456 34.949C80.1543 34.9187 80.1635 34.8887 80.1733 34.859C80.1828 34.8293 80.1928 34.7996 80.2032 34.7699C80.2136 34.7404 80.2244 34.711 80.2356 34.6816C80.2469 34.6525 80.2584 34.6235 80.2702 34.5946C80.2821 34.5655 80.2943 34.5367 80.307 34.5081C80.3197 34.4793 80.3327 34.4507 80.346 34.4224C80.3592 34.3942 80.3729 34.3661 80.3871 34.3381C80.4012 34.3101 80.4158 34.2824 80.4308 34.255C80.4455 34.2273 80.4606 34.1999 80.4762 34.1728C80.4917 34.1454 80.5076 34.1183 80.5238 34.0915C80.5399 34.0649 80.5565 34.0384 80.5735 34.0119C80.5902 33.9856 80.6074 33.9595 80.625 33.9336C80.6426 33.9076 80.6605 33.882 80.6787 33.8566C80.6971 33.8312 80.7157 33.806 80.7345 33.7809C81.3938 32.9091 82.2807 32.4938 83.3411 32.3662C83.3915 32.3607 83.442 32.3562 83.4925 32.3527C83.5429 32.3493 83.5934 32.3468 83.6439 32.3454C83.6947 32.3442 83.7453 32.3439 83.7957 32.3445C83.8465 32.3451 83.8971 32.3468 83.9476 32.3497C83.9984 32.3523 84.049 32.3559 84.0994 32.3605C84.1496 32.3654 84.1998 32.3712 84.25 32.3778C84.3002 32.3848 84.3502 32.3926 84.4001 32.4012C84.45 32.4101 84.4998 32.42 84.5494 32.4306C84.5987 32.4416 84.6479 32.4534 84.6969 32.4661C84.7459 32.4791 84.7947 32.4929 84.8431 32.5076C84.8916 32.5223 84.9398 32.5381 84.9876 32.5548C85.0352 32.5715 85.0827 32.5893 85.13 32.608C85.177 32.6265 85.2236 32.6461 85.2697 32.6668C85.3161 32.6873 85.362 32.7087 85.4073 32.7309C85.4529 32.7534 85.4979 32.7767 85.5423 32.801C85.5867 32.8252 85.6307 32.8503 85.6742 32.8762C85.7005 32.8924 85.7266 32.9088 85.7525 32.9256C85.7785 32.942 85.8041 32.959 85.8295 32.9766C85.8552 32.9939 85.8806 33.0115 85.9057 33.0294C85.9305 33.0476 85.9551 33.0659 85.9797 33.0843C86.0045 33.1031 86.0288 33.1221 86.0528 33.1414C86.077 33.1605 86.1008 33.1799 86.1242 33.1998C86.1478 33.2197 86.1712 33.2399 86.1942 33.2604C86.2173 33.2809 86.2401 33.3017 86.2626 33.3227C86.2854 33.3438 86.3077 33.3651 86.3297 33.3867C86.3516 33.4081 86.3733 33.4299 86.395 33.4521C86.4163 33.4743 86.4374 33.4968 86.4581 33.5195C86.4792 33.542 86.4998 33.565 86.52 33.5883C86.5405 33.6114 86.5605 33.6349 86.5801 33.6589C86.5998 33.6825 86.6191 33.7064 86.6381 33.7307C86.6574 33.7549 86.6763 33.7793 86.6948 33.8038C86.7132 33.8286 86.7314 33.8535 86.7493 33.8786C86.7669 33.9037 86.7844 33.9291 86.8017 33.9548C86.819 33.9804 86.8358 34.0063 86.8523 34.0322C86.8687 34.0582 86.8849 34.0844 86.9007 34.111C86.9166 34.1375 86.9322 34.1642 86.9474 34.191C86.9627 34.2178 86.9776 34.2448 86.992 34.2719C87.0064 34.299 87.0206 34.3264 87.0344 34.3541C87.0483 34.3815 87.0618 34.4092 87.0751 34.4372C87.088 34.4651 87.1007 34.4933 87.1131 34.5215C87.1256 34.5498 87.1375 34.5782 87.149 34.6067C87.1609 34.6353 87.1723 34.664 87.1832 34.6928C87.1942 34.7217 87.2047 34.7505 87.2148 34.7794C87.2249 34.8085 87.2347 34.8378 87.2442 34.8672C87.2538 34.8966 87.2628 34.926 87.2715 34.9554C87.2804 34.9852 87.2888 35.0149 87.2966 35.0446C87.3047 35.0746 87.3123 35.1044 87.3195 35.1341C87.3267 35.1641 87.3335 35.1943 87.3398 35.2245C87.3459 35.2551 87.3517 35.2857 87.3571 35.3163C87.3623 35.3468 87.3672 35.3776 87.3719 35.4084C87.3765 35.4393 87.3808 35.4701 87.3848 35.501C87.3886 35.5319 87.3919 35.5627 87.3948 35.5936C87.398 35.6244 87.4007 35.6554 87.403 35.6866C87.405 35.7177 87.4069 35.7487 87.4086 35.7796C87.4101 35.8108 87.4111 35.8419 87.4117 35.8731C87.4122 35.9042 87.4125 35.9354 87.4125 35.9665C87.4125 35.9974 87.4121 36.0284 87.4112 36.0595C87.4104 36.0907 87.4091 36.1218 87.4073 36.153C87.4056 36.1838 87.4036 36.2148 87.4013 36.246C87.3987 36.2768 87.3958 36.3078 87.3926 36.339C87.3895 36.3699 87.3858 36.4007 87.3818 36.4316C87.3778 36.4624 87.3734 36.4933 87.3688 36.5242C87.3639 36.5547 87.3587 36.5853 87.3533 36.6159C87.3475 36.6465 87.3416 36.677 87.3355 36.7076C87.3292 36.7382 87.3224 36.7686 87.3152 36.7989C87.308 36.8292 87.3005 36.8593 87.2927 36.8893C87.2849 36.9193 87.2767 36.9493 87.268 36.9793C87.2594 37.0093 87.2504 37.0391 87.2412 37.0688C87.232 37.0983 87.2223 37.1277 87.2122 37.1571C87.2018 37.1865 87.1913 37.2159 87.1806 37.2454C87.1697 37.2745 87.1584 37.3035 87.1469 37.3323C87.1354 37.3612 87.1235 37.3899 87.1114 37.4184C87.099 37.447 87.0863 37.4754 87.0733 37.5036C87.0604 37.5319 87.047 37.56 87.0331 37.588C87.0196 37.616 87.0056 37.6437 86.9911 37.6711C86.9767 37.6987 86.9619 37.7261 86.9466 37.7533C86.9316 37.7804 86.9162 37.8073 86.9003 37.8342C86.8844 37.861 86.8683 37.8877 86.8518 37.9142C86.8354 37.9405 86.8187 37.9665 86.8017 37.9925C86.7846 38.0185 86.7672 38.0443 86.7493 38.0699C86.1242 38.9646 85.213 39.431 84.1592 39.6179Z" fill="white"/>
</svg>
